<svg width="25" height="24" viewBox="0 0 25 24" fill="none" xmlns="http://www.w3.org/2000/svg">
<path d="M22.6106 12.0611C22.6106 16.9572 19.0861 21.0243 14.4519 21.8355V15.1088H16.6426H16.7623L16.7803 14.9904L17.2237 12.0821L17.2482 11.9218H17.0859H14.4519V10.1747C14.4519 9.79649 14.5441 9.44045 14.7672 9.18079C14.987 8.92504 15.3516 8.74197 15.9422 8.74197H17.2031H17.3425V8.6026V6.12663V6.00915L17.2267 5.98928L17.2031 6.12663L17.2267 5.98927L17.2266 5.98926L17.2264 5.98923L17.2257 5.9891L17.223 5.98865L17.2129 5.98695L17.1739 5.98059C17.14 5.97513 17.0904 5.96737 17.0276 5.95807C16.902 5.93947 16.7233 5.9147 16.5101 5.88994C16.0845 5.8405 15.519 5.79076 14.9646 5.79076C13.7942 5.79076 12.8111 6.14818 12.1206 6.84354C11.4301 7.53893 11.0481 8.55617 11.0481 9.84452V11.9218H8.64844H8.50908V12.0611V14.9694V15.1088H8.64844H11.0481V21.8355C6.41394 21.0243 2.88936 16.9572 2.88936 12.0611C2.88936 6.58068 7.30491 2.13936 12.75 2.13936C18.1951 2.13936 22.6106 6.58068 22.6106 12.0611Z" fill="#46008C" stroke="#46008C" stroke-width="0.278722"/>
</svg>
