<svg width="25" height="24" viewBox="0 0 25 24" fill="none" xmlns="http://www.w3.org/2000/svg">
<path fill-rule="evenodd" clip-rule="evenodd" d="M16.8651 7.45704C15.8117 6.47232 14.406 5.93587 12.9516 5.95791C10.2902 5.95791 8.0298 7.71791 7.22387 10.0878L7.22386 10.0878V10.0879C6.79653 11.3298 6.79653 12.6746 7.22386 13.9165L7.22385 13.9165H7.22762C8.0373 16.2828 10.2939 18.0428 12.9554 18.0428C14.3291 18.0428 15.5085 17.6984 16.4226 17.0901V17.0874C17.4984 16.3893 18.2331 15.2907 18.4618 14.0488H12.9514V10.1981H22.5739C22.6938 10.8668 22.7501 11.5502 22.7501 12.23C22.7501 15.2714 21.6412 17.8428 19.7118 19.5844L19.7139 19.586C18.0234 21.1145 15.703 22 12.9516 22C9.09438 22 5.56702 19.8689 3.83521 16.4922L3.8352 16.4922C2.38827 13.6666 2.38827 10.3377 3.8352 7.51216H3.83522L3.83521 7.51215C5.56702 4.13178 9.09438 2.00067 12.9516 2.00067C15.4856 1.97128 17.9334 2.90456 19.7777 4.60209L16.8651 7.45704Z" fill="#46008C"/>
</svg>
