<svg width="218" height="102" viewBox="0 0 218 102" fill="none" xmlns="http://www.w3.org/2000/svg">
<path d="M12.298 83.0491C8.74996 83.0491 5.9056 85.8103 5.91451 89.2841C5.93642 90.9651 6.62427 92.5688 7.82712 93.7432C9.02998 94.9177 10.6496 95.5671 12.3306 95.5488C14.0615 95.5316 15.7213 94.8577 16.9743 93.6635L18.0787 94.8511C16.5046 96.3506 14.4214 97.1992 12.2475 97.2263C7.71079 97.2263 4.10932 93.7229 4.09744 89.2782C4.08556 84.8335 7.72266 81.3953 12.2713 81.3953C14.4085 81.4098 16.4622 82.2268 18.0253 83.6845L16.9505 84.9879C15.7116 83.76 14.0422 83.0643 12.298 83.0491Z" fill="#7400E9"/>
<path d="M31.4751 91.2437C31.4751 94.7679 28.9989 97.2382 25.4954 97.2382C21.9919 97.2382 19.492 94.7561 19.4831 91.2437C19.4741 87.7313 21.9355 85.3055 25.4598 85.3055C28.984 85.3055 31.4751 87.7402 31.4751 91.2437ZM21.2378 91.2674C21.2378 93.9158 23.0014 95.721 25.4924 95.721C27.9835 95.721 29.7322 93.9396 29.7233 91.2674C29.7233 88.6635 27.9419 86.8435 25.4657 86.8435C22.9895 86.8435 21.2259 88.6606 21.2348 91.2674H21.2378Z" fill="#7400E9"/>
<path d="M45.367 89.8956L45.3878 97.1698H43.6479L43.6301 90.341C43.6301 88.23 42.3623 86.9741 40.2751 86.9741C37.9414 86.9978 36.5073 88.5447 36.3114 90.8339L36.3292 97.1669H34.5775L34.5448 85.356H36.2965V87.9598C37.1219 86.1784 38.7134 85.3114 40.8689 85.2877C43.6925 85.2936 45.3581 87.0364 45.367 89.8956Z" fill="#7400E9"/>
<path d="M60.0937 89.8956L60.1145 97.1698H58.3628L58.3449 90.341C58.3449 88.23 57.0772 86.9741 54.9899 86.9741C52.6562 86.9978 51.2222 88.5447 51.0262 90.8339L51.044 97.1669H49.2893L49.2567 85.356H51.0084V87.9598C51.8338 86.1784 53.4252 85.3114 55.5807 85.2877C58.4192 85.2936 60.0848 87.0364 60.0937 89.8956Z" fill="#7400E9"/>
<path d="M74.1965 91.9176H64.5441C64.841 94.2542 66.5304 95.7773 68.8433 95.7773C69.5233 95.7914 70.1988 95.6649 70.8277 95.4059C71.4566 95.1469 72.0253 94.7609 72.4982 94.272L73.4661 95.2815C72.3467 96.5166 70.687 97.2352 68.7156 97.2352C65.2358 97.2352 62.825 94.7887 62.8161 91.2614C62.8072 87.7342 65.224 85.3233 68.6592 85.2877C72.4744 85.2936 74.3657 87.9272 74.1965 91.9176ZM72.6199 90.5251C72.5041 88.2241 70.9632 86.7395 68.6592 86.7395C66.3552 86.7395 64.7786 88.2241 64.5381 90.5102L72.6199 90.5251Z" fill="#7400E9"/>
<path d="M81.9277 86.8643C79.4812 86.8643 77.7354 88.6605 77.7414 91.2644C77.7473 93.8683 79.505 95.6883 81.9515 95.6883C83.5013 95.6883 84.778 95.1479 85.6064 94.1622L86.6189 95.1954C85.5678 96.4751 83.9289 97.2381 81.8862 97.2381C78.451 97.2381 76.0193 94.7916 76.0104 91.2644C76.0015 87.7372 78.4421 85.2906 81.8535 85.2906C83.7626 85.2906 85.3362 85.9409 86.4169 87.0424L85.455 88.2538C84.9879 87.8008 84.4357 87.4448 83.8303 87.2063C83.2249 86.9678 82.5783 86.8516 81.9277 86.8643Z" fill="#7400E9"/>
<path d="M95.9217 96.3623C95.1403 96.9183 94.2084 97.2237 93.2495 97.2382C91.5215 97.2619 90.2389 96.2287 90.23 93.8921L90.2122 87.09H88.5049V85.7212H90.2122V82.6215H91.9401V85.7212H95.6901V87.09H91.9431L91.9609 93.6011C91.9609 95.0381 92.528 95.623 93.5375 95.623C94.2056 95.585 94.8536 95.3809 95.4229 95.0292L95.9217 96.3623Z" fill="#7400E9"/>
<path d="M100.526 81.9713C100.534 82.1265 100.51 82.2817 100.456 82.4275C100.402 82.5732 100.319 82.7065 100.212 82.8192C100.105 82.9318 99.9761 83.0215 99.8333 83.0828C99.6905 83.1441 99.5367 83.1757 99.3813 83.1757C99.2259 83.1757 99.0721 83.1441 98.9293 83.0828C98.7865 83.0215 98.6576 82.9318 98.5505 82.8192C98.4435 82.7065 98.3605 82.5732 98.3065 82.4275C98.2526 82.2817 98.2288 82.1265 98.2367 81.9713C98.2288 81.8161 98.2526 81.6609 98.3065 81.5152C98.3605 81.3694 98.4435 81.2362 98.5505 81.1235C98.6576 81.0109 98.7865 80.9212 98.9293 80.8599C99.0721 80.7986 99.2259 80.767 99.3813 80.767C99.5367 80.767 99.6905 80.7986 99.8333 80.8599C99.9761 80.9212 100.105 81.0109 100.212 81.1235C100.319 81.2362 100.402 81.3694 100.456 81.5152C100.51 81.6609 100.534 81.8161 100.526 81.9713ZM100.265 85.362L100.297 97.1729H98.5752L98.5425 85.362H100.265Z" fill="#7400E9"/>
<path d="M115.368 89.8956L115.389 97.1698H113.637L113.619 90.341C113.619 88.23 112.352 86.9741 110.264 86.9741C107.931 86.9978 106.497 88.5447 106.301 90.8339L106.318 97.1669H104.567L104.534 85.356H106.295V87.9598C107.12 86.1784 108.711 85.3114 110.867 85.2877C113.694 85.2936 115.359 87.0364 115.368 89.8956Z" fill="#7400E9"/>
<path d="M129.566 85.362L129.596 95.9377C129.596 99.3967 127.253 101.579 123.658 101.579C121.892 101.564 120.182 100.956 118.804 99.851L119.608 98.5713C120.71 99.5357 122.123 100.07 123.587 100.077C126.17 100.077 127.85 98.4822 127.841 95.9912V94.1949C127.016 95.7655 125.49 96.6652 123.492 96.6652C120.303 96.6652 118.097 94.3077 118.088 90.9616C118.079 87.6155 120.249 85.3204 123.417 85.3026C125.439 85.2788 126.98 86.1933 127.826 87.7728V85.3709L129.566 85.362ZM127.832 91.0032C127.832 88.5329 126.137 86.7604 123.78 86.7604C121.422 86.7604 119.742 88.5418 119.727 91.0032C119.712 93.4645 121.422 95.2252 123.803 95.2252C126.185 95.2252 127.838 93.4437 127.832 90.9972V91.0032Z" fill="#7400E9"/>
<path d="M152.393 91.2882C152.393 94.7917 150.119 97.2263 146.773 97.2263C144.662 97.2263 143.044 96.2614 142.162 94.6225L142.18 101.517H140.44L140.395 85.3501H142.147V87.8887C143.017 86.2497 144.632 85.2848 146.698 85.2848C150.042 85.2937 152.384 87.764 152.393 91.2882ZM150.612 91.2437C150.612 88.6844 148.848 86.7901 146.378 86.7901C143.908 86.7901 142.138 88.6547 142.147 91.2437C142.156 93.8327 143.911 95.6973 146.405 95.6973C148.899 95.6973 150.627 93.8268 150.621 91.2437H150.612Z" fill="#7400E9"/>
<path d="M157.301 80.5046L157.349 97.164H155.597L155.552 80.5046H157.301Z" fill="#7400E9"/>
<path d="M169.07 97.1728V95.332C168.132 96.6117 166.63 97.2411 164.742 97.2411C162.295 97.2411 160.718 95.6913 160.713 93.6782C160.713 91.5999 162.343 90.3113 165.128 90.2876H169.011V89.5453C169.011 87.8173 167.924 86.7603 165.837 86.7603C164.534 86.7603 163.322 87.2532 162.09 88.1291L161.345 86.8939C162.868 85.8845 164.148 85.2996 166.167 85.2996C169.085 85.2996 170.706 86.8494 170.736 89.3642L170.781 97.1788L169.07 97.1728ZM169.038 93.1082V91.6712H165.35C163.376 91.6712 162.343 92.265 162.348 93.601C162.354 94.9371 163.408 95.7774 165.071 95.7774C167.066 95.7803 168.592 94.7916 169.035 93.1082H169.038Z" fill="#7400E9"/>
<path d="M174.447 101.585C173.54 101.612 172.654 101.309 171.953 100.733L172.689 99.3403C173.169 99.7005 173.752 99.8972 174.352 99.9015C175.272 99.9015 176.035 99.3076 176.504 98.1942L176.994 97.0719L172.066 85.3501H173.906L177.849 95.1955L181.573 85.362H183.354L177.959 98.8563C177.256 100.653 176.017 101.585 174.447 101.585Z" fill="#7400E9"/>
<path d="M195.278 91.9176H185.623C185.92 94.2542 187.609 95.7774 189.922 95.7774C190.603 95.793 191.28 95.6676 191.911 95.4091C192.541 95.1505 193.112 94.7644 193.586 94.275L194.554 95.2845C193.434 96.5196 191.775 97.2381 189.803 97.2381C186.323 97.2381 183.913 94.7916 183.904 91.2644C183.895 87.7372 186.312 85.3263 189.747 85.2906C193.553 85.2936 195.447 87.9272 195.278 91.9176ZM193.702 90.5251C193.586 88.2241 192.054 86.7396 189.726 86.7396C187.398 86.7396 185.845 88.2241 185.605 90.5103L193.702 90.5251Z" fill="#7400E9"/>
<path d="M204.274 85.2936V87.0008C201.78 86.9563 200.236 88.5061 200.04 90.8843L200.058 97.1698H198.306L198.273 85.3589H200.025V87.9865C200.806 86.2585 202.264 85.3173 204.274 85.2936Z" fill="#7400E9"/>
<path d="M209.654 86.7396C208.33 86.7396 207.321 87.2117 207.324 88.334C207.324 91.0062 213.93 89.6374 213.942 93.8802C213.942 96.1931 211.884 97.2263 209.619 97.2263C207.935 97.2263 206.204 96.6325 205.079 95.5637L205.75 94.284C206.837 95.2442 208.234 95.7789 209.684 95.7893C211.076 95.7893 212.199 95.2519 212.217 94.0613C212.276 91.1873 205.655 92.648 205.667 88.4706C205.667 86.226 207.612 85.2581 209.767 85.2581C211.103 85.2521 212.412 85.6259 213.544 86.3358L212.873 87.6838C211.906 87.081 210.793 86.7545 209.654 86.7396Z" fill="#7400E9"/>
<path d="M32.609 19.915C25.3408 19.915 19.4739 22.9049 15.7062 28.2759L15.6706 15.4318C15.6588 11.3624 14.0343 7.46354 11.1532 4.58963C8.27206 1.71573 4.36918 0.101103 0.299744 0.0995483L0.463042 58.6435C0.475612 62.7124 2.10039 66.6104 4.98145 69.4837C7.8625 72.3569 11.7649 73.9712 15.8339 73.9727L15.8131 66.2056C19.7115 71.5975 25.5932 74.5665 33.0603 74.5665C48.0957 74.5665 57.9203 63.7146 57.8757 47.4857C57.8282 30.9659 47.6414 19.915 32.609 19.915ZM29.1412 61.8293C21.2761 61.8293 15.7804 55.8555 15.7567 46.984C15.7389 38.344 21.193 32.2604 29.0581 32.2604C36.9231 32.2604 42.3179 38.4331 42.3416 46.9958C42.3654 55.7575 37.0062 61.8293 29.1412 61.8293Z" fill="#7400E9"/>
<path d="M67.9525 20.4108L68.101 73.9756H83.4362L83.2847 20.4108H67.9525Z" fill="#7400E9"/>
<path d="M217.536 0.0995486C215.538 0.0991494 213.559 0.493226 211.712 1.25919C209.866 2.02515 208.189 3.14794 206.778 4.56319C205.367 5.97845 204.248 7.65834 203.488 9.50658C202.727 11.3548 202.338 13.3351 202.344 15.3338L202.379 28.2759C198.484 22.801 192.599 19.8141 185.034 19.8141C170.1 19.8141 160.174 30.666 160.219 46.9958C160.266 63.5246 170.352 74.5754 185.586 74.5754C192.956 74.5754 198.722 71.5886 202.489 66.1136L202.51 73.9786C204.509 73.9787 206.487 73.5843 208.333 72.8182C210.179 72.052 211.855 70.9292 213.267 69.5139C214.678 68.0987 215.796 66.419 216.556 64.5709C217.317 62.7229 217.706 60.7429 217.7 58.7444L217.536 0.0995486ZM189.131 62.2271C181.068 62.2271 175.673 56.1524 175.548 47.3818C175.622 38.7181 181.082 32.5365 189.048 32.5365C196.913 32.5365 202.409 38.6112 202.43 47.3818C202.451 56.1524 196.999 62.2271 189.131 62.2271Z" fill="#7400E9"/>
<path d="M75.6787 14.9804C77.3862 14.9802 79.0424 14.3966 80.3729 13.3264C81.7034 12.2562 82.6283 10.7635 82.9944 9.09573H98.3237C98.7194 10.8998 99.7676 12.4941 101.267 13.5725C102.767 14.6509 104.612 15.1373 106.448 14.9383C108.284 14.7393 109.982 13.8689 111.216 12.4944C112.449 11.1198 113.132 9.33793 113.132 7.49095C113.132 5.64398 112.449 3.86211 111.216 2.48754C109.982 1.11297 108.284 0.242619 106.448 0.0436229C104.612 -0.155374 102.767 0.331017 101.267 1.40939C99.7676 2.48776 98.7194 4.08208 98.3237 5.88618H82.9974C82.6945 4.5063 82.0075 3.24021 81.0158 2.23404C80.0241 1.22788 78.7681 0.522655 77.3928 0.199772C76.0174 -0.12311 74.5788 -0.0504897 73.243 0.409253C71.9071 0.868995 70.7285 1.69712 69.8432 2.79803C68.9578 3.89895 68.4019 5.22778 68.2394 6.63115C68.077 8.03452 68.3147 9.45522 68.9252 10.7293C69.5356 12.0033 70.4939 13.0788 71.6894 13.8315C72.8849 14.5842 74.2689 14.9836 75.6816 14.9834L75.6787 14.9804Z" fill="#7400E9"/>
<path d="M98.0175 20.4108L98.1689 73.9756H113.501L113.353 20.4108H98.0175Z" fill="#7400E9"/>
<path d="M131.868 19.814H131.699C124.03 19.9446 117.914 26.2746 117.914 33.9437V36.5624C119.615 34.6355 122.513 33.8903 125.633 33.8606C132.204 33.8606 136.197 38.041 136.218 44.8134L136.298 73.9844H151.63L151.535 40.3302C151.506 27.78 143.816 19.814 131.868 19.814Z" fill="#7400E9"/>
</svg>
